<svg width="48" height="48" viewBox="0 0 48 48" fill="none" xmlns="http://www.w3.org/2000/svg">
<rect width="48" height="48" rx="24" fill="url(#paint0_linear_7083_79620)"/>
<path d="M24.0003 15.9998V10.6665H18.667M28.0003 22.6665V25.3332M10.667 23.9998H13.3337M34.667 23.9998H37.3337M20.0003 22.6665V25.3332M34.667 29.3332C34.667 30.0404 34.386 30.7187 33.8859 31.2188C33.3858 31.7189 32.7076 31.9998 32.0003 31.9998H19.771C19.0638 32 18.3856 32.281 17.8857 32.7812L14.9497 35.7172C14.8173 35.8495 14.6486 35.9397 14.465 35.9762C14.2814 36.0127 14.091 35.994 13.9181 35.9223C13.7451 35.8507 13.5973 35.7294 13.4932 35.5737C13.3892 35.4181 13.3337 35.2351 13.3337 35.0478V18.6665C13.3337 17.9593 13.6146 17.281 14.1147 16.7809C14.6148 16.2808 15.2931 15.9998 16.0003 15.9998H32.0003C32.7076 15.9998 33.3858 16.2808 33.8859 16.7809C34.386 17.281 34.667 17.9593 34.667 18.6665V29.3332Z" stroke="black" stroke-width="1.33333" stroke-linecap="round" stroke-linejoin="round"/>
<defs>
<linearGradient id="paint0_linear_7083_79620" x1="0" y1="0" x2="5.46347" y2="52.4323" gradientUnits="userSpaceOnUse">
<stop stop-color="#E2F6F3"/>
<stop offset="1" stop-color="#EEF6E2"/>
</linearGradient>
</defs>
</svg>
