<svg width="16" height="16" viewBox="0 0 16 16" fill="none" xmlns="http://www.w3.org/2000/svg">
<path d="M7.67969 15.3594C6.6224 15.3594 5.63021 15.1589 4.70312 14.7578C3.77604 14.362 2.95833 13.8099 2.25 13.1016C1.54688 12.3984 0.994792 11.5833 0.59375 10.6562C0.197917 9.72917 0 8.73698 0 7.67969C0 6.61719 0.197917 5.625 0.59375 4.70312C0.994792 3.77604 1.54688 2.96094 2.25 2.25781C2.95833 1.54948 3.77604 0.997396 4.70312 0.601562C5.63021 0.200521 6.6224 0 7.67969 0C8.74219 0 9.73438 0.200521 10.6562 0.601562C11.5833 0.997396 12.3984 1.54948 13.1016 2.25781C13.8099 2.96094 14.362 3.77604 14.7578 4.70312C15.1589 5.625 15.3594 6.61719 15.3594 7.67969C15.3594 8.73698 15.1589 9.72917 14.7578 10.6562C14.362 11.5833 13.8099 12.3984 13.1016 13.1016C12.3984 13.8099 11.5833 14.362 10.6562 14.7578C9.73438 15.1589 8.74219 15.3594 7.67969 15.3594ZM6.86719 11.3359C7.15885 11.3359 7.39323 11.2005 7.57031 10.9297L11.0234 5.57812C11.0807 5.49479 11.1276 5.40885 11.1641 5.32031C11.2005 5.22656 11.2188 5.13542 11.2188 5.04688C11.2188 4.84375 11.1432 4.67969 10.9922 4.55469C10.8411 4.42969 10.6693 4.36719 10.4766 4.36719C10.2266 4.36719 10.0182 4.5026 9.85156 4.77344L6.84375 9.58594L5.44531 7.83594C5.35156 7.71615 5.25521 7.63021 5.15625 7.57812C5.05729 7.52604 4.94792 7.5 4.82812 7.5C4.63021 7.5 4.46094 7.57031 4.32031 7.71094C4.1849 7.85156 4.11719 8.02083 4.11719 8.21875C4.11719 8.41146 4.1875 8.59375 4.32812 8.76562L6.11719 10.9453C6.22656 11.0755 6.34115 11.1745 6.46094 11.2422C6.58073 11.3047 6.71615 11.3359 6.86719 11.3359Z" fill="#2AA693"/>
</svg>
