<svg width="33" height="26" viewBox="0 0 33 26" fill="none" xmlns="http://www.w3.org/2000/svg">
<path d="M13.3724 19.5443H12.2256L8.07549 23.1978C7.81537 23.4264 7.59072 23.5998 7.40155 23.7181C7.21237 23.8363 7.00349 23.8954 6.7749 23.8954C6.46749 23.8954 6.22313 23.7929 6.04184 23.588C5.86843 23.3831 5.78172 23.1032 5.78172 22.7485V19.5443H5.01319C3.94907 19.5443 3.0426 19.3473 2.29377 18.9532C1.54494 18.559 0.973473 17.9876 0.579354 17.2387C0.193118 16.4899 0 15.5913 0 14.543V5.01319C0 3.96483 0.193118 3.06624 0.579354 2.31742C0.973473 1.56859 1.54494 0.99712 2.29377 0.603001C3.0426 0.201 3.94907 0 5.01319 0H20.6439C21.708 0 22.6145 0.201 23.3633 0.603001C24.1122 0.99712 24.6797 1.56859 25.0659 2.31742C25.4601 3.06624 25.6571 3.96483 25.6571 5.01319V7.07049H24.2028V5.03683C24.2028 3.90177 23.8954 3.02289 23.2806 2.40018C22.6736 1.76959 21.7908 1.4543 20.6321 1.4543H5.02501C3.85842 1.4543 2.97165 1.76959 2.36471 2.40018C1.75777 3.02289 1.4543 3.90177 1.4543 5.03683V14.5193C1.4543 15.6623 1.75777 16.5451 2.36471 17.1678C2.97165 17.7826 3.85842 18.09 5.02501 18.09H6.45566C6.70002 18.09 6.87343 18.1452 6.9759 18.2556C7.08625 18.358 7.14143 18.5354 7.14143 18.7876V22.2519L11.0314 18.5748C11.2284 18.3777 11.4097 18.2477 11.5753 18.1846C11.7408 18.1216 11.9576 18.09 12.2256 18.09H12.935L13.3724 19.5443ZM16.482 22.0509C15.4967 22.0509 14.6691 21.8775 13.9991 21.5307C13.3291 21.1918 12.8207 20.6912 12.4739 20.0291C12.1349 19.3591 11.9654 18.5354 11.9654 17.558V10.5584C11.9654 9.5889 12.1349 8.76914 12.4739 8.09914C12.8207 7.42913 13.3291 6.92072 13.9991 6.5739C14.6691 6.22707 15.4967 6.05366 16.482 6.05366H27.9391C28.9244 6.05366 29.7481 6.22707 30.4102 6.5739C31.0802 6.92072 31.5886 7.42913 31.9354 8.09914C32.2822 8.76914 32.4557 9.5889 32.4557 10.5584V17.558C32.4557 18.5275 32.2822 19.3473 31.9354 20.0173C31.5886 20.6794 31.0802 21.1839 30.4102 21.5307C29.7481 21.8775 28.9244 22.0509 27.9391 22.0509H27.4307V24.8886C27.4307 25.2196 27.3439 25.4876 27.1705 25.6926C27.005 25.8975 26.7685 26 26.4611 26C26.2483 26 26.0473 25.9409 25.8581 25.8226C25.6768 25.7044 25.4601 25.5349 25.2078 25.3142L21.3888 22.0509H16.482ZM16.5412 20.5966H21.3297C21.5346 20.5966 21.712 20.6282 21.8618 20.6912C22.0115 20.7464 22.1692 20.8528 22.3347 21.0105L26.0709 24.3211V21.3297C26.0709 21.0775 26.1379 20.8922 26.2719 20.774C26.4059 20.6558 26.5715 20.5966 26.7685 20.5966H27.8799C28.9519 20.5966 29.7362 20.3405 30.2328 19.8281C30.7373 19.3079 30.9895 18.5275 30.9895 17.487V10.6176C30.9895 9.58496 30.7373 8.80855 30.2328 8.28831C29.7362 7.76808 28.9519 7.50796 27.8799 7.50796H16.5412C15.4692 7.50796 14.6849 7.76808 14.1883 8.28831C13.6917 8.80855 13.4434 9.58496 13.4434 10.6176L13.4316 17.4989C13.4316 18.5393 13.6799 19.3157 14.1764 19.8281C14.6809 20.3405 15.4692 20.5966 16.5412 20.5966Z" fill="#2AA693"/>
</svg>
