<svg width="30" height="29" viewBox="0 0 30 29" fill="none" xmlns="http://www.w3.org/2000/svg">
<path d="M1.88708 8.99139C1.59107 8.99139 1.36443 8.90813 1.20718 8.74163C1.04992 8.56587 0.971292 8.36236 0.971292 8.1311C0.971292 7.79809 1.1563 7.52982 1.52632 7.32632L13.4316 0.457895C13.9404 0.152632 14.463 0 14.9995 0C15.536 0 16.0587 0.152632 16.5675 0.457895L28.4727 7.32632C28.852 7.53907 29.0416 7.80734 29.0416 8.1311C29.0416 8.36236 28.9584 8.56587 28.7919 8.74163C28.6346 8.90813 28.408 8.99139 28.112 8.99139H1.88708ZM4.27368 7.72871L4.17656 7.38182H25.8225L25.7115 7.72871L15.6656 2.03971C15.4343 1.91946 15.2123 1.85933 14.9995 1.85933C14.7683 1.85933 14.5463 1.91946 14.3335 2.03971L4.27368 7.72871ZM2.92775 11.489C2.72424 11.489 2.56699 11.4381 2.45598 11.3364C2.34498 11.2254 2.28947 11.0681 2.28947 10.8646V10.6703C2.28947 10.4761 2.34498 10.3281 2.45598 10.2263C2.56699 10.1153 2.72424 10.0598 2.92775 10.0598H6.57703C6.77129 10.0598 6.92392 10.1153 7.03493 10.2263C7.14593 10.3281 7.20144 10.4761 7.20144 10.6703V10.8646C7.20144 11.0681 7.14593 11.2254 7.03493 11.3364C6.92392 11.4381 6.77129 11.489 6.57703 11.489H2.92775ZM3.94067 25.1565V11.1144H5.56411V25.1565H3.94067ZM2.92775 26.211C2.72424 26.211 2.56699 26.1555 2.45598 26.0445C2.34498 25.9427 2.28947 25.7901 2.28947 25.5866V25.3923C2.28947 25.1981 2.34498 25.0455 2.45598 24.9344C2.56699 24.8327 2.72424 24.7818 2.92775 24.7818H6.57703C6.77129 24.7818 6.92392 24.8327 7.03493 24.9344C7.14593 25.0455 7.20144 25.1981 7.20144 25.3923V25.5866C7.20144 25.7901 7.14593 25.9427 7.03493 26.0445C6.92392 26.1555 6.77129 26.211 6.57703 26.211H2.92775ZM9.76842 11.489C9.56491 11.489 9.40766 11.4381 9.29665 11.3364C9.1949 11.2254 9.14402 11.0681 9.14402 10.8646V10.6703C9.14402 10.4761 9.1949 10.3281 9.29665 10.2263C9.40766 10.1153 9.56491 10.0598 9.76842 10.0598H13.4038C13.6073 10.0598 13.7646 10.1153 13.8756 10.2263C13.9866 10.3281 14.0421 10.4761 14.0421 10.6703V10.8646C14.0421 11.0681 13.9866 11.2254 13.8756 11.3364C13.7646 11.4381 13.6073 11.489 13.4038 11.489H9.76842ZM10.7813 25.1565V11.1144H12.3909V25.1565H10.7813ZM9.76842 26.211C9.56491 26.211 9.40766 26.1555 9.29665 26.0445C9.1949 25.9427 9.14402 25.7901 9.14402 25.5866V25.3923C9.14402 25.1981 9.1949 25.0455 9.29665 24.9344C9.40766 24.8327 9.56491 24.7818 9.76842 24.7818H13.4038C13.6073 24.7818 13.7646 24.8327 13.8756 24.9344C13.9866 25.0455 14.0421 25.1981 14.0421 25.3923V25.5866C14.0421 25.7901 13.9866 25.9427 13.8756 26.0445C13.7646 26.1555 13.6073 26.211 13.4038 26.211H9.76842ZM16.5952 11.489C16.401 11.489 16.2483 11.4381 16.1373 11.3364C16.0263 11.2254 15.9708 11.0681 15.9708 10.8646V10.6703C15.9708 10.4761 16.0263 10.3281 16.1373 10.2263C16.2483 10.1153 16.401 10.0598 16.5952 10.0598H20.2445C20.448 10.0598 20.6053 10.1153 20.7163 10.2263C20.8273 10.3281 20.8828 10.4761 20.8828 10.6703V10.8646C20.8828 11.0681 20.8273 11.2254 20.7163 11.3364C20.6053 11.4381 20.448 11.489 20.2445 11.489H16.5952ZM17.622 25.1565V11.1144H19.2316V25.1565H17.622ZM16.5952 26.211C16.1789 26.211 15.9708 26.0029 15.9708 25.5866V25.3923C15.9708 25.1981 16.0263 25.0455 16.1373 24.9344C16.2483 24.8327 16.401 24.7818 16.5952 24.7818H20.2445C20.448 24.7818 20.6053 24.8327 20.7163 24.9344C20.8273 25.0455 20.8828 25.1981 20.8828 25.3923V25.5866C20.8828 25.7901 20.8273 25.9427 20.7163 26.0445C20.6053 26.1555 20.448 26.211 20.2445 26.211H16.5952ZM23.422 11.489C23.2278 11.489 23.0751 11.4381 22.9641 11.3364C22.8531 11.2254 22.7976 11.0681 22.7976 10.8646V10.6703C22.7976 10.4761 22.8531 10.3281 22.9641 10.2263C23.0751 10.1153 23.2278 10.0598 23.422 10.0598H27.0852C27.2794 10.0598 27.4321 10.1153 27.5431 10.2263C27.6541 10.3281 27.7096 10.4761 27.7096 10.6703V10.8646C27.7096 11.0681 27.6541 11.2254 27.5431 11.3364C27.4321 11.4381 27.2794 11.489 27.0852 11.489H23.422ZM24.4627 25.1565V11.1144H26.0722V25.1565H24.4627ZM23.422 26.211C23.0057 26.211 22.7976 26.0029 22.7976 25.5866V25.3923C22.7976 25.1981 22.8531 25.0455 22.9641 24.9344C23.0751 24.8327 23.2278 24.7818 23.422 24.7818H27.0852C27.2794 24.7818 27.4321 24.8327 27.5431 24.9344C27.6541 25.0455 27.7096 25.1981 27.7096 25.3923V25.5866C27.7096 25.7901 27.6541 25.9427 27.5431 26.0445C27.4321 26.1555 27.2794 26.211 27.0852 26.211H23.422ZM0.846411 29C0.615152 29 0.416268 28.9121 0.249761 28.7364C0.0832536 28.5699 0 28.371 0 28.1397C0 27.8992 0.0832536 27.6957 0.249761 27.5292C0.416268 27.3627 0.615152 27.2794 0.846411 27.2794H29.1388C29.37 27.2794 29.5689 27.3627 29.7354 27.5292C29.9112 27.6957 29.999 27.8992 29.999 28.1397C29.999 28.371 29.9112 28.5699 29.7354 28.7364C29.5689 28.9121 29.37 29 29.1388 29H0.846411Z" fill="#2AA693"/>
</svg>
