<svg width="21" height="29" viewBox="0 0 21 29" fill="none" xmlns="http://www.w3.org/2000/svg">
<path d="M0 22.9952V10.6813C0 8.55057 0.442748 6.68734 1.32824 5.0916C2.21374 3.48664 3.44513 2.2368 5.02242 1.34208C6.60894 0.44736 8.44911 0 10.5429 0C12.5906 0 14.3801 0.442748 15.9113 1.32824C17.4517 2.20452 18.6462 3.43591 19.4948 5.02242C20.3526 6.60894 20.7815 8.46295 20.7815 10.5844C20.7815 11.7005 20.657 12.6691 20.4079 13.49C20.1681 14.3017 19.836 15.0165 19.4117 15.6345C18.9967 16.2525 18.5216 16.829 17.9866 17.364C17.4609 17.899 16.9074 18.4478 16.3263 19.0105C15.7452 19.5732 15.1687 20.205 14.5969 20.906C14.025 21.5978 13.4946 22.4187 13.0057 23.3688L11.968 25.3058C11.3408 26.5049 10.5153 27.4181 9.49141 28.0453C8.46756 28.6818 7.26845 29 5.89408 29C4.71342 29 3.68034 28.751 2.79485 28.2529C1.90935 27.764 1.22217 27.0676 0.733302 26.1636C0.244434 25.2689 0 24.2128 0 22.9952ZM1.6188 22.9122C1.6188 24.2681 2.01081 25.3473 2.79485 26.1498C3.57888 26.9523 4.63502 27.3535 5.96326 27.3535C6.97789 27.3535 7.868 27.1137 8.63359 26.6341C9.39917 26.1636 10.0356 25.4534 10.5429 24.5033L11.5806 22.6355C12.0879 21.7039 12.6229 20.8922 13.1856 20.2004C13.7575 19.5086 14.3247 18.886 14.8874 18.3325C15.4501 17.7699 15.9851 17.2303 16.4924 16.7137C17.0089 16.1972 17.4655 15.653 17.8621 15.0811C18.268 14.5 18.5862 13.8497 18.8168 13.1302C19.0474 12.4016 19.1627 11.553 19.1627 10.5844C19.1627 8.79501 18.803 7.22694 18.0835 5.88025C17.364 4.53356 16.3586 3.48664 15.0673 2.7395C13.7759 1.99237 12.2678 1.6188 10.5429 1.6188C8.76272 1.6188 7.19927 1.99698 5.85258 2.75334C4.51511 3.5097 3.47281 4.56584 2.72567 5.92176C1.98775 7.27767 1.6188 8.86419 1.6188 10.6813V22.9122ZM4.7042 17.5854C4.48282 17.5854 4.29373 17.507 4.13693 17.3502C3.98012 17.1842 3.90172 16.9951 3.90172 16.7829V10.5014C3.90172 9.23775 4.17844 8.12627 4.73187 7.16698C5.28531 6.19847 6.0555 5.44672 7.04246 4.91174C8.03865 4.37675 9.19163 4.10926 10.5014 4.10926C11.7836 4.10926 12.9043 4.37675 13.8635 4.91174C14.8228 5.4375 15.57 6.18464 16.105 7.15315C16.6399 8.11244 16.9074 9.22853 16.9074 10.5014C16.9074 10.7228 16.8244 10.9165 16.6584 11.0825C16.5016 11.2393 16.3125 11.3177 16.0911 11.3177C15.879 11.3177 15.6899 11.2393 15.5239 11.0825C15.367 10.9165 15.2886 10.7228 15.2886 10.5014C15.2886 9.05328 14.8551 7.89567 13.9881 7.02863C13.121 6.15235 11.9588 5.71422 10.5014 5.71422C9.50525 5.71422 8.63359 5.91714 7.88645 6.323C7.13931 6.71962 6.55821 7.27767 6.14313 7.99714C5.72805 8.70738 5.52052 9.54214 5.52052 10.5014V16.7829C5.52052 16.9951 5.4375 17.1842 5.27147 17.3502C5.11466 17.507 4.92557 17.5854 4.7042 17.5854ZM4.64885 13.324V11.7052H9.53292C10.5752 11.7052 11.4146 11.9957 12.051 12.5768C12.6967 13.1579 13.0196 13.9235 13.0196 14.8736C13.0196 15.2702 12.9365 15.6991 12.7705 16.1603C12.6045 16.6215 12.3877 17.0181 12.1202 17.3502L10.3216 19.6331C10.1279 19.8822 9.90649 20.0067 9.65744 20.0067C9.42684 20.0067 9.23314 19.9329 9.07634 19.7853C8.91953 19.6285 8.84113 19.4348 8.84113 19.2042C8.84113 18.992 8.91031 18.7983 9.04866 18.6231L10.7228 16.52C10.8981 16.2987 11.041 16.045 11.1517 15.7591C11.2716 15.4639 11.3316 15.1964 11.3316 14.9566C11.3316 14.4769 11.1656 14.0849 10.8335 13.7805C10.5107 13.4761 10.0864 13.324 9.56059 13.324H4.64885Z" fill="#2AA693"/>
</svg>
